<svg id="a4e485ba-cce7-4bf2-a937-15935d27aa2e" data-name="Layer 1" xmlns="http://www.w3.org/2000/svg" width="917.13751" height="601.20212" viewBox="0 0 917.13751 601.20212"><path d="M469.8283,670.33553c3.31771-26.67813,19.85136-52.96384,45.29423-61.64563a123.86326,123.86326,0,0,0,.00614,85.04047c3.90959,10.5753,9.35913,21.9305,5.68164,32.5888-2.28808,6.63189-7.88558,11.70586-14.14245,14.87849-6.25727,3.17263-13.20152,4.68476-20.05887,6.16664l-1.34956,1.11617C474.3735,723.89947,466.5106,697.01366,469.8283,670.33553Z" transform="translate(-141.43125 -149.39894)" fill="#f0f0f0"/><path d="M515.375,609.19434a105.86968,105.86968,0,0,0-26.319,59.58345,45.59121,45.59121,0,0,0,.51859,14.27515,26.14853,26.14853,0,0,0,6.50348,12.12824c2.93126,3.22058,6.30256,6.17543,8.3999,10.05247a16.01079,16.01079,0,0,1,.78221,13.07062c-1.85173,5.31109-5.5014,9.64009-9.21758,13.74946-4.12611,4.56266-8.48414,9.23647-10.238,15.28536-.21252.7329-1.33731.3603-1.12512-.3715,3.0515-10.524,13.26754-16.50187,18.13955-25.98072,2.27337-4.423,3.22759-9.55792,1.09634-14.22685-1.86368-4.08279-5.3376-7.13283-8.33375-10.36808a27.90251,27.90251,0,0,1-6.80084-11.62187,42.14763,42.14763,0,0,1-1.06551-14.20255A102.71212,102.71212,0,0,1,495.2167,639.354,107.74683,107.74683,0,0,1,514.591,608.3057c.50661-.56729,1.28731.32505.784.88864Z" transform="translate(-141.43125 -149.39894)" fill="#fff"/><path d="M489.37489,661.60742a15.88383,15.88383,0,0,1-12.09073-16.6389c.06037-.76,1.24413-.70184,1.18368.05912a14.70809,14.70809,0,0,0,11.27854,15.45466c.74175.17636.366,1.30047-.37149,1.12512Z" transform="translate(-141.43125 -149.39894)" fill="#fff"/><path d="M494.3767,693.744A30.61482,30.61482,0,0,0,508.048,676.11209c.2151-.73213,1.34-.35975,1.12512.37149a31.844,31.844,0,0,1-14.26357,18.31865c-.657.38974-1.18635-.67064-.53289-1.05826Z" transform="translate(-141.43125 -149.39894)" fill="#fff"/><path d="M500.9563,629.09794a8.991,8.991,0,0,0,8.52045-.43252c.65176-.39787,1.18041.663.53289,1.05826a10.07516,10.07516,0,0,1-9.42483.49938.61234.61234,0,0,1-.37681-.7483.59542.59542,0,0,1,.7483-.37682Z" transform="translate(-141.43125 -149.39894)" fill="#fff"/><path d="M592.676,656.34029c-.3999.26-.7998.52-1.20019.79a118.40679,118.40679,0,0,0-15.13965,11.81994c-.37012.33-.74023.67-1.1001,1.01a124.82713,124.82713,0,0,0-27.10986,37.11005,121.22249,121.22249,0,0,0-6.64014,17.18c-2.45019,8.13-4.46,17.14-9.31006,23.79a20.79775,20.79775,0,0,1-1.62011,2H486.72579c-.09961-.05-.19971-.09-.29981-.14l-1.75.08c.07032-.31.14991-.63.22022-.94.04-.18.08984-.36.12988-.54.02979-.12.06006-.24.08008-.35.00977-.04.02-.07995.02978-.11.02-.11.0503-.21.07032-.31q.65991-2.685,1.35986-5.37c0-.01,0-.01.00977-.02,3.59033-13.63,8.35009-27.08,15-39.38.20019-.37.3999-.75.62011-1.12a115.67433,115.67433,0,0,1,10.39014-15.76,102.26018,102.26018,0,0,1,6.81006-7.79,85.03667,85.03667,0,0,1,21.27978-15.94c15.72022-8.3,33.91993-11.48,50.72022-6.41C591.82589,656.07033,592.2463,656.20027,592.676,656.34029Z" transform="translate(-141.43125 -149.39894)" fill="#f0f0f0"/><path d="M592.57745,656.89658a105.86972,105.86972,0,0,0-56.88764,31.72816,45.591,45.591,0,0,0-8.18056,11.71015,26.14849,26.14849,0,0,0-2.10938,13.59926c.40143,4.33626,1.31421,8.72531.65458,13.08365a16.01083,16.01083,0,0,1-7.24487,10.9071c-4.67615,3.12574-10.19656,4.38485-15.63785,5.42855-6.04151,1.15883-12.33511,2.26677-17.37735,6.04049-.61094.45724-1.2847-.51747-.67468-.974,8.77264-6.56563,20.52866-5.18785,30.12561-9.82289,4.47811-2.1628,8.33157-5.68824,9.44091-10.69928.97007-4.38194.03267-8.90876-.41174-13.29581a27.90262,27.90262,0,0,1,1.56708-13.374,42.14808,42.14808,0,0,1,7.70017-11.98145,102.7127,102.7127,0,0,1,24.78221-20.40579A107.74726,107.74726,0,0,1,592.48648,655.715c.746-.14794.83214,1.03459.091,1.18156Z" transform="translate(-141.43125 -149.39894)" fill="#fff"/><path d="M540.26151,683.09162a15.88382,15.88382,0,0,1,.364-20.56468c.50574-.57044,1.41593.18867.90951.75986a14.70807,14.70807,0,0,0-.29949,19.13014c.48606.58739-.49073,1.25871-.974.67468Z" transform="translate(-141.43125 -149.39894)" fill="#fff"/><path d="M524.90675,711.76229a30.61478,30.61478,0,0,0,21.53141-5.847c.61254-.45506,1.28648.5195.67468.974a31.844,31.844,0,0,1-22.41775,6.03876c-.75924-.08439-.54346-1.24973.21166-1.1658Z" transform="translate(-141.43125 -149.39894)" fill="#fff"/><path d="M569.08157,664.10744a8.991,8.991,0,0,0,7.06351,4.78455c.75994.07472.54333,1.24-.21166,1.1658a10.07514,10.07514,0,0,1-7.82586-5.27567.61233.61233,0,0,1,.14967-.82435.59541.59541,0,0,1,.82434.14967Z" transform="translate(-141.43125 -149.39894)" fill="#fff"/><path d="M617.56875,156.02837a7.00787,7.00787,0,0,0-7,7v296a7.0078,7.0078,0,0,0,7,6.99951h434a7.00807,7.00807,0,0,0,7-6.99951v-296a7.00817,7.00817,0,0,0-7-7Z" transform="translate(-141.43125 -149.39894)" fill="#e6e6e6"/><path d="M627.56875,166.02837a7.00787,7.00787,0,0,0-7,7V449.02788a7.00787,7.00787,0,0,0,7,7h414a7.00816,7.00816,0,0,0,7-7V173.02837a7.00817,7.00817,0,0,0-7-7Z" transform="translate(-141.43125 -149.39894)" fill="#fff"/><path d="M1009.555,226.38246c-9.52-3.717-19.78565,5.605-22.01612,15.57892-2.23047,9.97382.624,20.28888,1.25244,30.48975s-2.04541,22.04626-11.14648,26.69665c-10.46533,5.34747-22.74121-1.60461-34.4458-2.66351A34.66192,34.66192,0,0,0,912.6707,310.314c-9.65283,13.243-9.16211,32.47247-20.585,44.223-9.92481,10.20948-26.09815,11.53876-39.98242,8.38159s-26.64649-10.01593-40.29883-14.05944-29.45459-4.88776-41.1543,3.22772c-12.21338,8.47229-17.64844,25.07916-31.05664,31.49609-9.48047,4.53729-20.70264,2.80646-30.84766.059-10.1455-2.74749-20.37548-6.454-30.84912-5.57226-10.47314.88171-21.39209,8.10833-22.22217,18.58606l359.46143-1.00367q2.44921-71.169,4.89893-142.33782C1020.38945,243.00734,1019.16191,230.13325,1009.555,226.38246Z" transform="translate(-141.43125 -149.39894)" fill="#aa80ff" opacity="0.1"/><path d="M471.58267,480.96576a12.06693,12.06693,0,0,1,9.04777-16.14017l6.31456-42.41427,16.59354,14.87325-8.54039,37.99708a12.13231,12.13231,0,0,1-23.41548,5.68411Z" transform="translate(-141.43125 -149.39894)" fill="#ffb6b6"/><path d="M355.78984,487.40428a12.06692,12.06692,0,0,0-3.97512-18.07112l6.26439-42.42171-20.19536,9.41842-2.8526,38.84043a12.1323,12.1323,0,0,0,20.75869,12.234Z" transform="translate(-141.43125 -149.39894)" fill="#ffb6b6"/><polygon points="303.127 581.915 321.864 581.914 330.778 509.641 303.124 509.643 303.127 581.915" fill="#ffb6b6"/><path d="M439.77878,725.19639l36.90069-.00149h.00149a23.51727,23.51727,0,0,1,23.516,23.51563v.76418l-60.41707.00224Z" transform="translate(-141.43125 -149.39894)" fill="#2f2e41"/><polygon points="203.127 581.915 221.864 581.914 230.778 509.641 203.124 509.643 203.127 581.915" fill="#ffb6b6"/><path d="M339.77878,725.19639l36.90069-.00149h.00149a23.51727,23.51727,0,0,1,23.516,23.51563v.76418l-60.41707.00224Z" transform="translate(-141.43125 -149.39894)" fill="#2f2e41"/><circle cx="291.30605" cy="54.73641" r="33.84783" fill="#ffb6b6"/><path d="M352.61374,448.15868s.49814,151.46389-1.9196,153.88162-11,93-11,93h30c2,0,53.033-197.31878,53.033-197.31878s21.75928,106.37893,18.13269,112.42312-.79956,85.27936,1.20886,91.87275c0,0,25.20778,8.06716,27.62545,2.02291s6-88,6-88l7-136,.153-35.50827Z" transform="translate(-141.43125 -149.39894)" fill="#2f2e41"/><path d="M491.63162,274.08413h13.4682a4.35759,4.35759,0,0,1,4.25323,3.39969c2.07831,9.20279,7.4339,35.28949,6.45563,55.834-1.20886,25.38586-3.62655,65.278-3.62655,68.90457s-12.08851,59.23374-12.08851,59.23374-8.31069-13.65912-17.45272-11.06052l1.73764-49.382,2.41775-20.55047-3.62655-36.26554Z" transform="translate(-141.43125 -149.39894)" fill="#e4e4e4"/><path d="M405.80322,251.95135s-42.91425,14.27526-47.7496,26.36376,18.64052,99.72519,18.64052,99.72519-9,40-21.05831,77.976c-5.48759,17.28241,46.88124,2.486,71.05831-5.976,14.98123-5.19571,42.69068,2.78318,58.28883-.06829,0,0,2.41769-32.639,0-38.68323s-8.462-2.41773-4.83542-10.87967,2.41772-9.67081,1.20886-13.29736,2.41776-8.462,2.41776-13.29737-1.20883-15.71505-1.20883-15.71505,32.639-76.1576,25.38586-83.41074S463.77792,253.46,463.77792,253.46,464.69414,254.0403,405.80322,251.95135Z" transform="translate(-141.43125 -149.39894)" fill="#e4e4e4"/><path d="M365.9111,274.08413l-4.29324,2.1466a12.10779,12.10779,0,0,0-6.4856,8.59812l-17.02478,90.79876-3.62654,85.8285s20.55046-6.04425,26.59474,0c0,0-6.04428-18.13279-2.41772-24.17707s3.62655-14.50619,3.62655-14.50619-2.41775,0,3.62653-6.04425,7.25308-8.462,6.04428-9.67078-2.41769-12.0885-2.41769-13.29736,12.0885-82.20188,12.0885-82.20188Z" transform="translate(-141.43125 -149.39894)" fill="#e4e4e4"/><path d="M653.95547,395.48812a2,2,0,1,1,0-4c92.415,0,180.54981-18.50391,248.16992-52.10352,63.40723-31.50683,103.81348-74.23144,110.85645-117.21972a1.99993,1.99993,0,1,1,3.94818.64087l-.00092.00561c-3.6582,22.33057-15.53417,44.23535-35.29589,65.10645-19.49024,20.58447-45.64161,39.106-77.72754,55.04882C835.74356,376.83581,746.976,395.48812,653.95547,395.48812Z" transform="translate(-141.43125 -149.39894)" fill="#aa80ff"/><polygon points="892.138 246.493 510.138 246.493 510.138 57.765 512.138 57.765 512.138 244.493 892.138 244.493 892.138 246.493" fill="#e6e6e6"/><path d="M400.83466,215.5379a18.59676,18.59676,0,0,1-.70771-11.95256c2.76466,7.33328,8.25784,5.09485,11.05685,1.65577,3.51036-4.31268,2.49956-14.27243,8.04187-14.71808,5.5423-.44571,11.08442.60318,16.54576,1.64729q-1.35747-2.32407-2.71447-4.64824,5.92558.36783,11.85164.73554-1.764-2.90306-3.529-5.80594a40.51966,40.51966,0,0,1,23.99664,22.70868,25.98693,25.98693,0,0,0-13.65229-38.23063q2.3377-3.067,4.67491-6.13388l-31.72106-3.13017a9.41965,9.41965,0,0,1,3.69143-7.97332c-4.15394-.938-8.55971.46909-12.0894,2.85106-3.52968,2.382-6.33677,5.66675-9.097,8.9092-4.17936,4.90952-8.40911,9.89594-11.14482,15.734A37.06206,37.06206,0,0,0,400.83466,215.5379Zm.38337-14.895.00058-.00182.03177-.00565Z" transform="translate(-141.43125 -149.39894)" fill="#2f2e41"/><path d="M789.91595,750.60106h-647.294a1.19069,1.19069,0,0,1,0-2.38137h647.294a1.19069,1.19069,0,0,1,0,2.38137Z" transform="translate(-141.43125 -149.39894)" fill="#cacaca"/></svg>